<svg width="44" height="44" viewBox="0 0 44 44" fill="none" xmlns="http://www.w3.org/2000/svg">
<g clip-path="url(#clip0_4_1963)">
<path d="M9.16667 12.8333H11C11.9725 12.8333 12.9051 12.4469 13.5927 11.7593C14.2804 11.0717 14.6667 10.139 14.6667 9.16659C14.6667 8.68036 14.8598 8.21404 15.2036 7.87022C15.5475 7.52641 16.0138 7.33325 16.5 7.33325H27.5C27.9862 7.33325 28.4525 7.52641 28.7964 7.87022C29.1402 8.21404 29.3333 8.68036 29.3333 9.16659C29.3333 10.139 29.7196 11.0717 30.4073 11.7593C31.0949 12.4469 32.0275 12.8333 33 12.8333H34.8333C35.8058 12.8333 36.7384 13.2196 37.4261 13.9072C38.1137 14.5948 38.5 15.5275 38.5 16.4999V32.9999C38.5 33.9724 38.1137 34.905 37.4261 35.5926C36.7384 36.2803 35.8058 36.6666 34.8333 36.6666H9.16667C8.19421 36.6666 7.26158 36.2803 6.57394 35.5926C5.88631 34.905 5.5 33.9724 5.5 32.9999V16.4999C5.5 15.5275 5.88631 14.5948 6.57394 13.9072C7.26158 13.2196 8.19421 12.8333 9.16667 12.8333" stroke="#182335" stroke-width="2.75" stroke-linecap="round" stroke-linejoin="round"/>
<path d="M22 29.3333C25.0376 29.3333 27.5 26.8708 27.5 23.8333C27.5 20.7957 25.0376 18.3333 22 18.3333C18.9624 18.3333 16.5 20.7957 16.5 23.8333C16.5 26.8708 18.9624 29.3333 22 29.3333Z" stroke="#182335" stroke-width="2.75" stroke-linecap="round" stroke-linejoin="round"/>
</g>
<defs>
<clipPath id="clip0_4_1963">
<rect width="44" height="44" fill="white"/>
</clipPath>
</defs>
</svg>
