<svg width="40" height="40" viewBox="0 0 40 40" fill="none" xmlns="http://www.w3.org/2000/svg">
<g clip-path="url(#clip0_494_2719)">
<path d="M8.33333 20H5L20 5L35 20H31.6667" stroke="#F5F5F5" stroke-width="2.75" stroke-linecap="round" stroke-linejoin="round"/>
<path d="M8.33333 20V31.6667C8.33333 32.5507 8.68452 33.3986 9.30964 34.0237C9.93476 34.6488 10.7826 35 11.6667 35H28.3333C29.2174 35 30.0652 34.6488 30.6904 34.0237C31.3155 33.3986 31.6667 32.5507 31.6667 31.6667V20" stroke="#F5F5F5" stroke-width="2.75" stroke-linecap="round" stroke-linejoin="round"/>
<path d="M15 35V25C15 24.1159 15.3512 23.2681 15.9763 22.6429C16.6014 22.0178 17.4493 21.6666 18.3333 21.6666H21.6667C22.5507 21.6666 23.3986 22.0178 24.0237 22.6429C24.6488 23.2681 25 24.1159 25 25V35" stroke="#F5F5F5" stroke-width="2.75" stroke-linecap="round" stroke-linejoin="round"/>
</g>
<defs>
<clipPath id="clip0_494_2719">
<rect width="40" height="40" fill="white"/>
</clipPath>
</defs>
</svg>
