<svg width="26" height="23" viewBox="0 0 26 23" fill="none" xmlns="http://www.w3.org/2000/svg">
<path d="M22.375 11.9651L13 21.2501L3.62501 11.9651M3.62501 11.9651C3.00664 11.3634 2.51956 10.6401 2.19444 9.84089C1.86933 9.04167 1.71321 8.18379 1.73593 7.32127C1.75865 6.45874 1.95971 5.61027 2.32646 4.82927C2.6932 4.04827 3.21768 3.35167 3.86687 2.78332C4.51606 2.21498 5.27589 1.78721 6.09852 1.52695C6.92116 1.26669 7.78877 1.17958 8.64672 1.2711C9.50467 1.36262 10.3344 1.6308 11.0836 2.05873C11.8328 2.48667 12.4853 3.0651 13 3.7576C13.5169 3.07013 14.1702 2.49675 14.9189 2.07335C15.6676 1.64996 16.4956 1.38566 17.3512 1.297C18.2067 1.20834 19.0714 1.29722 19.891 1.55809C20.7106 1.81896 21.4675 2.24619 22.1145 2.81305C22.7614 3.37992 23.2843 4.0742 23.6505 4.85246C24.0168 5.63072 24.2184 6.4762 24.2429 7.33598C24.2674 8.19577 24.1141 9.05134 23.7927 9.84916C23.4713 10.647 22.9886 11.3699 22.375 11.9726" fill="white"/>
<path d="M22.375 11.9651L13 21.2501L3.62501 11.9651M3.62501 11.9651C3.00664 11.3634 2.51956 10.6401 2.19444 9.84089C1.86933 9.04167 1.71321 8.18379 1.73593 7.32127C1.75865 6.45874 1.95971 5.61027 2.32646 4.82927C2.6932 4.04827 3.21768 3.35167 3.86687 2.78332C4.51606 2.21498 5.27589 1.78721 6.09852 1.52695C6.92116 1.26669 7.78877 1.17958 8.64672 1.2711C9.50467 1.36262 10.3344 1.6308 11.0836 2.05873C11.8328 2.48667 12.4853 3.0651 13 3.7576C13.5169 3.07013 14.1702 2.49675 14.9189 2.07335C15.6676 1.64996 16.4956 1.38566 17.3512 1.297C18.2067 1.20834 19.0714 1.29722 19.891 1.55809C20.7106 1.81896 21.4675 2.24619 22.1144 2.81305C22.7614 3.37992 23.2843 4.0742 23.6505 4.85246C24.0168 5.63072 24.2184 6.4762 24.2429 7.33598C24.2674 8.19577 24.1141 9.05134 23.7927 9.84916C23.4713 10.647 22.9886 11.3699 22.375 11.9726" stroke="#182435" stroke-width="1.83333" stroke-linecap="round" stroke-linejoin="round"/>
</svg>
