<svg width="70" height="70" viewBox="0 0 70 70" fill="none" xmlns="http://www.w3.org/2000/svg">
<g clip-path="url(#clip0_267_7149)">
<path d="M49.5833 32.0834H20.4166C17.1949 32.0834 14.5833 34.695 14.5833 37.9167V55.4167C14.5833 58.6384 17.1949 61.25 20.4166 61.25H49.5833C52.8049 61.25 55.4166 58.6384 55.4166 55.4167V37.9167C55.4166 34.695 52.8049 32.0834 49.5833 32.0834Z" stroke="#EF694D" stroke-width="4.58333" stroke-linecap="round" stroke-linejoin="round"/>
<path d="M34.9999 49.5833C36.6107 49.5833 37.9166 48.2775 37.9166 46.6667C37.9166 45.0558 36.6107 43.75 34.9999 43.75C33.3891 43.75 32.0833 45.0558 32.0833 46.6667C32.0833 48.2775 33.3891 49.5833 34.9999 49.5833Z" stroke="#EF694D" stroke-width="4.58333" stroke-linecap="round" stroke-linejoin="round"/>
<path d="M23.3333 32.0833V20.4167C23.3333 17.3225 24.5624 14.355 26.7503 12.1671C28.9383 9.97916 31.9057 8.75 34.9999 8.75C38.0941 8.75 41.0616 9.97916 43.2495 12.1671C45.4374 14.355 46.6666 17.3225 46.6666 20.4167V32.0833" stroke="#EF694D" stroke-width="4.58333" stroke-linecap="round" stroke-linejoin="round"/>
</g>
<defs>
<clipPath id="clip0_267_7149">
<rect width="70" height="70" fill="white"/>
</clipPath>
</defs>
</svg>
