<svg width="150" height="150" viewBox="0 0 150 150" fill="none" xmlns="http://www.w3.org/2000/svg">
<g clip-path="url(#clip0_143_4100)">
<path d="M135 0H15C6.71573 0 0 6.71573 0 15V135C0 143.284 6.71573 150 15 150H135C143.284 150 150 143.284 150 135V15C150 6.71573 143.284 0 135 0Z" fill="#182335"/>
<path d="M112.5 22.5H37.5C29.2157 22.5 22.5 29.2157 22.5 37.5V112.5C22.5 120.784 29.2157 127.5 37.5 127.5H112.5C120.784 127.5 127.5 120.784 127.5 112.5V37.5C127.5 29.2157 120.784 22.5 112.5 22.5Z" fill="#FFF6E9"/>
<path d="M94.5 117.75H90.75V127.5H94.5V117.75Z" fill="#E15546"/>
<path d="M22.5 97.5H60.75V127.5H37.5C29.2157 127.5 22.5 120.785 22.5 112.5V97.5Z" fill="#EF694D"/>
<path d="M42.75 36H22.5V97.5H42.75V36Z" fill="#EFCB68"/>
<path d="M103.5 50.25C103.5 46.1079 106.858 42.75 111 42.75H127.5V97.5H103.5V50.25Z" fill="#EFCB68"/>
<path d="M112.5 22.5C120.785 22.5 127.5 29.2157 127.5 37.5H112.5V22.5Z" fill="#EF694D"/>
<path d="M94.5239 20.8674L108.22 7.18555L116.563 34.5311L142.483 41.4837L128.787 55.1655L94.5239 20.8674Z" fill="#EF694D"/>
<path d="M145.5 13.5H127.5V55.5H145.5V13.5Z" fill="#182335"/>
<path d="M145.5 13.5H127.5V55.5H145.5V13.5Z" fill="#182335"/>
<path d="M132 6.75H91.5V22.5H132V6.75Z" fill="#182335"/>
<path d="M22.5 37.5C22.5 29.2157 29.2157 22.5 37.5 22.5H42.75V62.25L22.5 39.6648V37.5Z" fill="#EEAF9D"/>
<path d="M22.5 37.5C22.5 29.2157 29.2157 22.5 37.5 22.5H42.75V63L22.5 44.25V37.5Z" fill="#EF694D"/>
<path d="M79.5 97.5H52.5V127.5H79.5V97.5Z" fill="#EFCB68"/>
<path d="M79.5 97.5H127.5V112.5C127.5 120.785 120.785 127.5 112.5 127.5H79.5V97.5Z" fill="black"/>
<path d="M115.626 130.537L37.9756 58.5645L25.3535 72.1823L103.004 144.155L115.626 130.537Z" fill="#EFCB68"/>
<path d="M117.75 127.5H79.5V145.5H117.75V127.5Z" fill="#182335"/>
<path d="M85.5 122.25H78V127.5H85.5V122.25Z" fill="#EFCB68"/>
<path d="M42.75 62.9849L60 78.7502L79.9822 97.5002H42.75V62.9849Z" fill="#ECDDD0"/>
<path d="M75 92.25C84.5269 92.25 92.25 84.5269 92.25 75C92.25 65.4731 84.5269 57.75 75 57.75C65.4731 57.75 57.75 65.4731 57.75 75C57.75 84.5269 65.4731 92.25 75 92.25Z" fill="black"/>
</g>
<defs>
<clipPath id="clip0_143_4100">
<rect width="150" height="150" fill="white"/>
</clipPath>
</defs>
</svg>
