<svg width="44" height="44" viewBox="0 0 44 44" fill="none" xmlns="http://www.w3.org/2000/svg">
<g clip-path="url(#clip0_604_1435)">
<path d="M16.5 7.33331H9.16667C8.15415 7.33331 7.33334 8.15412 7.33334 9.16665V16.5C7.33334 17.5125 8.15415 18.3333 9.16667 18.3333H16.5C17.5125 18.3333 18.3333 17.5125 18.3333 16.5V9.16665C18.3333 8.15412 17.5125 7.33331 16.5 7.33331Z" stroke="#182335" stroke-width="2.75" stroke-linecap="round" stroke-linejoin="round"/>
<path d="M34.8333 7.33331H27.5C26.4875 7.33331 25.6667 8.15412 25.6667 9.16665V16.5C25.6667 17.5125 26.4875 18.3333 27.5 18.3333H34.8333C35.8459 18.3333 36.6667 17.5125 36.6667 16.5V9.16665C36.6667 8.15412 35.8459 7.33331 34.8333 7.33331Z" stroke="#182335" stroke-width="2.75" stroke-linecap="round" stroke-linejoin="round"/>
<path d="M16.5 25.6667H9.16667C8.15415 25.6667 7.33334 26.4875 7.33334 27.5V34.8334C7.33334 35.8459 8.15415 36.6667 9.16667 36.6667H16.5C17.5125 36.6667 18.3333 35.8459 18.3333 34.8334V27.5C18.3333 26.4875 17.5125 25.6667 16.5 25.6667Z" stroke="#182335" stroke-width="2.75" stroke-linecap="round" stroke-linejoin="round"/>
<path d="M34.8333 25.6667H27.5C26.4875 25.6667 25.6667 26.4875 25.6667 27.5V34.8334C25.6667 35.8459 26.4875 36.6667 27.5 36.6667H34.8333C35.8459 36.6667 36.6667 35.8459 36.6667 34.8334V27.5C36.6667 26.4875 35.8459 25.6667 34.8333 25.6667Z" stroke="#182335" stroke-width="2.75" stroke-linecap="round" stroke-linejoin="round"/>
</g>
<defs>
<clipPath id="clip0_604_1435">
<rect width="44" height="44" fill="white"/>
</clipPath>
</defs>
</svg>
